# xmcd
#
# Track frame offsets:
#	150
#	16707
#	43034
#	61574
#	79726
#	98863
#	115064
#	132916
#	148984
#	166216
#	189168
#	204645
#	219571
#	230687
#	245237
#	269395
#
# Disc length: 3597 seconds
#
# Revision: 2
# Processed by: cddbd v1.5.2PL0 Copyright (c) Steve Scherf et al.
# Submitted via: audiograbber 1.83.01
#
DISCID=e00e0b10
DTITLE=Various Artist - TT261
DYEAR=2001
DGENRE=Country
TTITLE0=Toby Keith - Go With Her
TTITLE1=Martina McBride - God's Will
TTITLE2=Blaine Larsen - How Do You Get That Lonely
TTITLE3=Terri Clark - I Think The World Needs A Drink
TTITLE4=Amy Dalley - I Would Cry
TTITLE5=Phil Vassar - I'll Take That As A Yes
TTITLE6=Brooks and Dunn - It's Getting Better All The Time
TTITLE7=Brad Paisley - Mud On The Tires
TTITLE8=Jimmy Wayne - Paper Angels
TTITLE9=Big and Rich - Rollin' (The Ballad Of Big and Rich)
TTITLE10=Trace Adkins - Songs About Me
TTITLE11=Craig Morgan - That's What I Love About Sunday
TTITLE12=Joe Nichols - What's A Guy Gotta Do
TTITLE13=Gretchen Wilson - When It Rains
TTITLE14=Shelly Fairchild - You Don't Lie Here Anymore
TTITLE15=Data - Data Track
EXTD=Original Submission is HOSED UP Badly.  This submission is correct.
EXTT0=
EXTT1=
EXTT2=
EXTT3=
EXTT4=
EXTT5=
EXTT6=
EXTT7=
EXTT8=
EXTT9=
EXTT10=
EXTT11=
EXTT12=
EXTT13=
EXTT14=
EXTT15=
PLAYORDER=
